<svg xmlns="http://www.w3.org/2000/svg" viewBox="0 0 256 256"><defs><style>.cls-1{fill:#f79467;}.cls-2{font-size:26.73px;font-family:ComicSansMS, Comic Sans MS;}.cls-3{fill:#fff;}</style></defs><title>WP Plugin Helper by Grega Radelj</title><g id="Layer_2" data-name="Layer 2"><g id="Layer_3" data-name="Layer 3"><rect class="cls-1" width="256" height="256"/></g><g id="Layer_2-2" data-name="Layer 2"><polygon points="114.39 137.93 85.92 137.93 85.15 132.85 106.42 125.06 107.97 130 100.57 132.71 114.39 132.71 114.39 137.93"/><ellipse cx="88.05" cy="113.28" rx="11.49" ry="12.4"/><path d="M57.86,177.72l-1.24-5c16.1-4.61,23.56-18.09,24.74-20.41l3.56-28.38,4.79.7L86,153.84l-.17.38C85.54,154.94,77.62,172.05,57.86,177.72Z"/><path d="M97.66,176.7H92.83V171c0-6.15-4-11.53-9.62-12.79l1-5.11c7.8,1.76,13.47,9.29,13.47,17.9Z"/><text class="cls-2" transform="translate(22.74 226.23)"><tspan class="cls-3">WP Plugin</tspan><tspan x="120.51" y="0" xml:space="preserve"> Helper</tspan></text></g><g id="Layer_1-2" data-name="Layer 1"><path class="cls-3" d="M90.5,70.46c-.1-4.77,4.7-9.84,10.28-11.42s8-.75,10.92,4.17c5.6,9.57,11.09,19.2,16.82,28.69,1.71,2.83,1.29,4.29-1.61,5.78-4.44,2.28-8.71,4.91-13,7.46-1.84,1.09-3.22,1.55-4.56-.83-5.91-10.48-12-20.87-17.92-31.31A13,13,0,0,1,90.5,70.46Z"/><path class="cls-3" d="M150.58,31.68a6.88,6.88,0,0,1,7,3.78c5.81,10.18,11.65,20.35,17.68,30.4,1.43,2.38,1,3.41-1.25,4.64-4.55,2.43-9.1,4.9-13.4,7.73-2.53,1.66-3.63,1.14-5-1.3-5.35-9.53-10.91-18.95-16.31-28.45-3.55-6.24-2.72-9.52,3.09-13.85A14.42,14.42,0,0,1,150.58,31.68Z"/><path class="cls-3" d="M194.69,149.41a8.35,8.35,0,0,1-1-7.5c2.22-7.49,3.82-15.16,6.12-22.63,5.07-16.48,5.17-32.58-2.34-48.46-1.23-2.59-1.66-3.78-4.79-2-14.93,8.71-74.14,44.34-88.81,53.44-3.08,1.91-2.23,2.85-.52,5.15,10.5,14.08,24.78,21.54,41.71,24.78,7.67,1.47,15.2,3.65,22.86,5.2a8.35,8.35,0,0,1,6.14,4.43,100.76,100.76,0,0,0,6.34,9.87c3.3,4.48,8,6.31,12.64,5.36a10.38,10.38,0,0,0,3.32-1.34h0a11.7,11.7,0,0,0,4.21-4.35c1.85-3.41,1.92-7.57-.1-11.77A100.76,100.76,0,0,0,194.69,149.41Z"/></g></g></svg>